<svg width="35" height="35" viewBox="0 0 35 35" fill="none" xmlns="http://www.w3.org/2000/svg">
<path d="M17.5585 2.91659C9.596 2.91659 3.10641 9.40617 3.10641 17.3687C3.10641 19.9208 3.77725 22.3999 5.03141 24.5874L2.98975 32.0833L10.646 30.0708C12.7606 31.2228 15.1377 31.8353 17.5585 31.8353C25.521 31.8353 32.0106 25.3458 32.0106 17.3833C32.0106 13.5187 30.5085 9.88742 27.7814 7.16034C26.4444 5.80982 24.8519 4.73902 23.0967 4.01042C21.3416 3.28181 19.4589 2.90997 17.5585 2.91659ZM17.5731 5.35201C20.7814 5.35201 23.7856 6.60617 26.0606 8.88117C27.1771 9.99732 28.0623 11.3229 28.6654 12.7819C29.2685 14.2408 29.5777 15.8045 29.5752 17.3833C29.5752 24.0041 24.1793 29.3853 17.5585 29.3853C15.4002 29.3853 13.2856 28.8166 11.4481 27.7083L11.0106 27.4603L6.46058 28.6562L7.671 24.2228L7.37933 23.7562C6.17466 21.8438 5.53747 19.6288 5.54183 17.3687C5.55641 10.7478 10.9377 5.35201 17.5731 5.35201ZM12.4397 10.6895C12.2064 10.6895 11.8127 10.777 11.4772 11.1416C11.1564 11.5062 10.2085 12.3958 10.2085 14.1603C10.2085 15.9395 11.5064 17.6458 11.6668 17.8937C11.871 18.1416 14.2335 21.7874 17.8647 23.3333C18.7252 23.727 19.396 23.9458 19.921 24.1062C20.7814 24.3833 21.5689 24.3395 22.196 24.252C22.896 24.1499 24.3252 23.377 24.6314 22.5312C24.9377 21.6853 24.9377 20.9708 24.8502 20.8103C24.7481 20.6645 24.5147 20.577 24.1502 20.4166C23.7856 20.2124 22.0064 19.3374 21.6856 19.2208C21.3502 19.1041 21.146 19.0458 20.8689 19.3958C20.6356 19.7603 19.9356 20.577 19.7314 20.8103C19.5127 21.0583 19.3085 21.0874 18.9585 20.9124C18.5793 20.7228 17.4127 20.3437 16.0418 19.1187C14.9627 18.1562 14.2481 16.9749 14.0293 16.6103C13.8543 16.2603 14.0147 16.0416 14.1897 15.8812C14.3502 15.7208 14.5835 15.4583 14.7293 15.2395C14.9189 15.0353 14.9772 14.8749 15.0939 14.6416C15.2106 14.3937 15.1522 14.1895 15.0647 14.0145C14.9772 13.8541 14.2481 12.0458 13.9418 11.3312C13.6502 10.6312 13.3585 10.7187 13.1252 10.7041C12.921 10.7041 12.6877 10.6895 12.4397 10.6895Z" fill="#4A68CB"/>
</svg>
