<svg width="45" height="45" viewBox="0 0 45 45" fill="none" xmlns="http://www.w3.org/2000/svg">
<path d="M20.625 31.875V13.125H7.5V31.875H20.625ZM20.625 5.625C21.6196 5.625 22.5734 6.02009 23.2766 6.72335C23.9799 7.42661 24.375 8.38044 24.375 9.375V35.625C24.375 36.6196 23.9799 37.5734 23.2766 38.2766C22.5734 38.9799 21.6196 39.375 20.625 39.375H7.5C6.50544 39.375 5.55161 38.9799 4.84835 38.2766C4.14509 37.5734 3.75 36.6196 3.75 35.625V9.375C3.75 8.38044 4.14509 7.42661 4.84835 6.72335C5.55161 6.02009 6.50544 5.625 7.5 5.625H20.625ZM30.9375 5.625H40.3125C41.0584 5.625 41.7738 5.92132 42.3012 6.44876C42.8287 6.97621 43.125 7.69158 43.125 8.4375V14.0625C43.125 14.8084 42.8287 15.5238 42.3012 16.0512C41.7738 16.5787 41.0584 16.875 40.3125 16.875H33.75L28.125 22.5V8.4375C28.125 7.69158 28.4213 6.97621 28.9488 6.44876C29.4762 5.92132 30.1916 5.625 30.9375 5.625Z" fill="white"/>
</svg>
