<svg width="45" height="45" viewBox="0 0 45 45" fill="none" xmlns="http://www.w3.org/2000/svg">
<path d="M33.9937 22.5L36.3562 20.1375C37.1812 19.3125 38.2312 18.8625 39.375 18.75V16.875L28.125 5.625H9.375C7.29375 5.625 5.625 7.29375 5.625 9.375V35.625C5.625 36.6196 6.02009 37.5734 6.72335 38.2767C7.42661 38.9799 8.38044 39.375 9.375 39.375H20.625V35.8688L20.8687 35.625H9.375V9.375H22.5V22.5H33.9937ZM26.25 8.4375L36.5625 18.75H26.25V8.4375ZM35.8687 25.9313L39.6937 29.7563L28.2 41.25H24.375V37.425L35.8687 25.9313ZM42.8437 26.6063L41.0062 28.4438L37.1812 24.6188L39.0187 22.7813C39.375 22.4063 39.9937 22.4063 40.3687 22.7813L42.8437 25.2563C43.2187 25.6313 43.2187 26.25 42.8437 26.6063Z" fill="white"/>
</svg>
