<svg width="45" height="45" viewBox="0 0 45 45" fill="none" xmlns="http://www.w3.org/2000/svg">
<path d="M38.5688 27.8625L41.25 25.1813L38.5688 22.5L31.875 29.1937L15.8063 13.125L22.5 6.43125L19.8188 3.75L17.1375 6.43125L14.4563 3.75L10.4438 7.7625L7.7625 5.08125L5.08125 7.7625L7.7625 10.4438L3.75 14.4563L6.43125 17.1375L3.75 19.8187L6.43125 22.5L13.125 15.8063L29.1938 31.875L22.5 38.5687L25.1813 41.25L27.8625 38.5687L30.5438 41.25L34.5563 37.2375L37.2375 39.9188L39.9188 37.2375L37.2375 34.5563L41.25 30.5438L38.5688 27.8625Z" fill="white"/>
</svg>
