<svg width="30" height="31" viewBox="0 0 30 31" fill="none" xmlns="http://www.w3.org/2000/svg">
<path d="M12.5 19.1463L18.9875 15.4878L12.5 11.8292V19.1463ZM26.95 9.59751C27.1125 10.1707 27.225 10.939 27.3 11.9146C27.3875 12.8902 27.425 13.7317 27.425 14.4634L27.5 15.4878C27.5 18.1585 27.3 20.1219 26.95 21.378C26.6375 22.4756 25.9125 23.1829 24.7875 23.4878C24.2 23.6463 23.125 23.756 21.475 23.8292C19.85 23.9146 18.3625 23.9512 16.9875 23.9512L15 24.0243C9.7625 24.0243 6.5 23.8292 5.2125 23.4878C4.0875 23.1829 3.3625 22.4756 3.05 21.378C2.8875 20.8048 2.775 20.0365 2.7 19.0609C2.6125 18.0853 2.575 17.2439 2.575 16.5121L2.5 15.4878C2.5 12.817 2.7 10.8536 3.05 9.59751C3.3625 8.49995 4.0875 7.79264 5.2125 7.48776C5.8 7.32922 6.875 7.21946 8.525 7.14629C10.15 7.06093 11.6375 7.02434 13.0125 7.02434L15 6.95117C20.2375 6.95117 23.5 7.14629 24.7875 7.48776C25.9125 7.79264 26.6375 8.49995 26.95 9.59751Z" fill="black"/>
</svg>
