<svg width="30" height="31" viewBox="0 0 30 31" fill="none" xmlns="http://www.w3.org/2000/svg">
<g id="ri:instagram-fill">
<path id="Vector" d="M16.285 3.29398C17.1972 3.29057 18.1093 3.29951 19.0212 3.32081L19.2637 3.32935C19.5437 3.3391 19.82 3.3513 20.1537 3.36593C21.4837 3.42691 22.3912 3.63179 23.1875 3.93301C24.0125 4.24276 24.7075 4.66227 25.4025 5.34032C26.038 5.9496 26.5298 6.6866 26.8437 7.50008C27.1525 8.27691 27.3625 9.16349 27.425 10.4611C27.44 10.7854 27.4525 11.0562 27.4625 11.3293L27.47 11.5659C27.4922 12.4552 27.5018 13.3447 27.4987 14.2342L27.5 15.144V16.7415C27.5031 17.6315 27.4935 18.5214 27.4712 19.4111L27.4637 19.6476C27.4537 19.9208 27.4412 20.1903 27.4262 20.5159C27.3637 21.8135 27.1512 22.6989 26.8437 23.4757C26.5308 24.29 26.0389 25.0276 25.4025 25.6367C24.7774 26.2566 24.0216 26.7364 23.1875 27.0428C22.3912 27.344 21.4837 27.5489 20.1537 27.6098C19.82 27.6245 19.5437 27.6367 19.2637 27.6464L19.0212 27.6537C18.1093 27.6754 17.1972 27.6848 16.285 27.6818L15.3525 27.683H13.7162C12.8041 27.686 11.8919 27.6767 10.98 27.655L10.7375 27.6476C10.4408 27.6371 10.1441 27.6249 9.84749 27.611C8.51749 27.5501 7.60999 27.3428 6.81249 27.0428C5.97834 26.7371 5.22279 26.2572 4.59874 25.6367C3.96255 25.0273 3.47027 24.2898 3.15624 23.4757C2.84749 22.6989 2.63749 21.8135 2.57499 20.5159C2.56107 20.2266 2.54857 19.9371 2.53749 19.6476L2.53124 19.4111C2.50819 18.5214 2.49778 17.6315 2.49999 16.7415V14.2342C2.4965 13.3447 2.50567 12.4552 2.52749 11.5659L2.53624 11.3293C2.54624 11.0562 2.55874 10.7854 2.57374 10.4611C2.63624 9.16227 2.84624 8.27813 3.15499 7.50008C3.4692 6.6862 3.96244 5.9494 4.59999 5.34154C5.22361 4.72051 5.97869 4.2398 6.81249 3.93301C7.60999 3.63179 8.51624 3.42691 9.84749 3.36593L10.7375 3.32935L10.98 3.32325C11.8915 3.30078 12.8032 3.29061 13.715 3.29276L16.285 3.29398ZM15 9.39154C14.1719 9.38011 13.3497 9.52937 12.5812 9.83065C11.8127 10.1319 11.1133 10.5792 10.5235 11.1465C9.93379 11.7138 9.46549 12.3898 9.14585 13.1352C8.82621 13.8806 8.6616 14.6805 8.6616 15.4885C8.6616 16.2965 8.82621 17.0964 9.14585 17.8418C9.46549 18.5872 9.93379 19.2632 10.5235 19.8305C11.1133 20.3978 11.8127 20.8451 12.5812 21.1463C13.3497 21.4476 14.1719 21.5969 15 21.5854C16.6576 21.5854 18.2473 20.943 19.4194 19.7995C20.5915 18.656 21.25 17.1051 21.25 15.4879C21.25 13.8707 20.5915 12.3198 19.4194 11.1763C18.2473 10.0327 16.6576 9.39154 15 9.39154ZM15 11.8306C15.4981 11.8216 15.9931 11.9096 16.456 12.0894C16.9189 12.2691 17.3404 12.5371 17.696 12.8776C18.0515 13.2181 18.334 13.6243 18.5268 14.0724C18.7196 14.5206 18.819 15.0018 18.8191 15.4879C18.8192 15.9739 18.72 16.4551 18.5273 16.9034C18.3346 17.3516 18.0523 17.7579 17.6969 18.0985C17.3414 18.4391 16.92 18.7072 16.4571 18.8872C15.9943 19.0671 15.4994 19.1552 15.0012 19.1464C14.0067 19.1464 13.0528 18.761 12.3496 18.0749C11.6463 17.3887 11.2512 16.4582 11.2512 15.4879C11.2512 14.5176 11.6463 13.587 12.3496 12.9009C13.0528 12.2148 14.0067 11.8293 15.0012 11.8293L15 11.8306ZM21.5625 7.56227C21.1592 7.57802 20.7779 7.74538 20.4982 8.02931C20.2186 8.31324 20.0625 8.6917 20.0625 9.08544C20.0625 9.47918 20.2186 9.85765 20.4982 10.1416C20.7779 10.4255 21.1592 10.5929 21.5625 10.6086C21.9769 10.6086 22.3743 10.448 22.6673 10.1621C22.9604 9.87625 23.125 9.48852 23.125 9.08422C23.125 8.67993 22.9604 8.2922 22.6673 8.00632C22.3743 7.72044 21.9769 7.55983 21.5625 7.55983V7.56227Z" fill="black"/>
</g>
</svg>
